<svg width="163" height="60" viewBox="0 0 163 60" fill="none" xmlns="http://www.w3.org/2000/svg">
<path d="M103.202 26.1776C103.74 25.7839 104.357 25.5363 104.941 25.2239C105.824 25.187 106.898 24.8857 107.606 25.5862C108.21 26.4844 108.016 27.6062 107.981 28.6245C107.419 32.3356 106.678 36.019 106.03 39.7134C105.965 40.6024 105.682 41.4673 105.762 42.3655C106.303 42.3674 106.833 42.4968 107.356 42.6391C107.617 42.7721 107.887 42.8904 108.147 43.0327C108.286 43.3414 108.214 43.6851 108.218 44.0122C108.001 44.1435 107.787 44.2765 107.576 44.4096C106.813 44.4558 106.052 44.4373 105.29 44.4724C105.261 45.099 105.248 45.7292 105.109 46.3465C104.817 48.6659 104.634 51.0482 105.083 53.3602C105.185 53.9294 105.614 54.3915 106.129 54.6317C106.19 54.7408 106.314 54.957 106.375 55.066C106.15 55.4985 105.769 55.8034 105.364 56.0585C104.392 56.2248 103.411 55.9642 102.684 55.2934C102.3 54.8387 102.01 54.3212 101.77 53.7816C101.123 51.8743 101.337 49.8358 101.335 47.8582C101.304 46.7068 101.629 45.5813 101.546 44.4299C101.258 44.4503 100.975 44.4909 100.698 44.5537C99.2228 44.6443 97.7406 44.5907 96.275 44.7959C95.6429 44.8846 94.8704 44.6794 94.3695 45.1729C93.8687 46.2393 93.39 47.3167 92.915 48.3942C92.867 48.4903 92.7746 48.6807 92.7284 48.7768C92.6267 49.0226 92.5288 49.2702 92.4234 49.516C91.6897 50.9502 91.333 52.6117 90.2297 53.8333C89.9635 53.9608 89.6937 54.0791 89.4294 54.2085C89.0247 54.0995 88.6088 53.9775 88.3501 53.6226C88.3575 53.1717 88.3741 52.7226 88.4536 52.279C88.6939 51.865 88.8454 51.4086 89.0173 50.9631C89.2575 50.4937 89.4109 49.9892 89.653 49.5216C90.1317 48.2168 90.9504 47.0358 91.2628 45.6756C90.7361 45.7329 90.2075 45.7791 89.6808 45.7347C89.568 45.6017 89.4571 45.4704 89.3481 45.3411C89.2224 44.6406 89.5643 43.9568 90.1428 43.565C90.786 43.042 91.6065 42.774 92.429 42.7389C92.6729 42.3489 92.8873 41.9423 93.0851 41.5265C93.2107 41.2881 93.3364 41.0515 93.4602 40.8131C93.7116 40.3381 93.9685 39.8687 94.1958 39.3808C94.2586 39.2385 94.3252 39.098 94.3954 38.9576C95.9682 36.0707 97.4615 33.1266 99.3577 30.432C99.5148 30.2176 99.6719 30.0033 99.8271 29.7852C100.825 28.473 101.903 27.2052 103.202 26.1776ZM99.3595 35.6032C99.1562 36.0097 98.9141 36.396 98.7164 36.8045C98.2174 37.6306 97.8052 38.5029 97.3358 39.3438C97.2711 39.56 97.1621 39.756 97.0013 39.913C96.737 40.7909 95.9774 41.4821 95.9331 42.421C97.8865 42.1604 99.8585 42.1604 101.829 42.1641C101.882 42.0957 101.989 41.959 102.045 41.8906C102.372 39.2884 102.949 36.725 103.449 34.1542C103.741 32.9381 103.936 31.6999 104.25 30.4912C104.298 29.946 104.468 29.4248 104.551 28.887L104.27 28.9572C102.195 30.8054 100.747 33.2246 99.3595 35.6032Z" fill="#E2E0D1"/>
<path d="M54.4492 28.5913C55.6487 28.1995 57.0292 28.229 58.1012 28.9498C58.4209 29.301 58.7462 29.6687 58.9236 30.1178C59.4522 32.0584 58.7961 34.0951 57.6983 35.7177C56.4341 37.4014 54.9445 39.0149 53.0557 39.9981C52.7526 39.95 52.2333 40.0701 52.1963 39.634C51.9487 38.6526 53.0502 38.1407 53.6139 37.5419C53.7358 37.418 53.8597 37.2961 53.9816 37.1722C54.8484 36.1983 55.7965 35.2428 56.3029 34.0156C56.4674 33.6349 56.6208 33.2505 56.776 32.8661C56.8185 32.0455 57.0551 31.1232 56.6042 30.3766C56.0405 30.3008 55.4491 30.2953 54.9482 30.6002C52.6861 32.1471 51.2704 34.5682 50.0211 36.9431C49.7124 37.7008 49.2559 38.3902 48.9935 39.1701C48.8419 39.464 48.6922 39.7597 48.5444 40.0554C48.3023 40.7096 47.9474 41.3121 47.7109 41.9663C47.5575 42.2639 47.4115 42.5652 47.2636 42.8664C46.7757 43.9605 46.2213 45.0269 45.6797 46.0951C44.9867 47.5441 44.1088 48.8951 43.1755 50.198C42.8853 50.7192 42.3161 51.1147 42.3161 51.7634C44.7187 52.9628 46.7166 54.8239 49.1192 56.0215C49.2153 56.064 49.4056 56.1472 49.4999 56.1897C49.681 56.2433 49.8566 56.3172 50.0266 56.4096C50.3371 56.5224 50.6679 56.5945 50.9599 56.7626C51.348 56.8513 51.738 56.9493 52.1224 57.062C53.0169 57.3023 53.9576 57.221 54.8761 57.2358C55.8483 57.2764 56.7908 56.9548 57.6539 56.5335C57.9607 56.3542 58.3285 56.4595 58.663 56.4632C59.0105 57.8734 57.5911 58.7494 56.5598 59.3574C56.2438 59.4609 55.937 59.5885 55.6339 59.7215C55.377 59.7659 55.1219 59.8213 54.8743 59.899C53.2073 60.1189 51.5033 59.9821 49.9028 59.4646C49.4537 59.3002 49.0027 59.1375 48.5499 58.9915C46.3358 58.0711 44.3657 56.6943 42.4307 55.2989C42.2145 55.1455 42.0019 54.9921 41.7912 54.8369C41.2737 54.5615 40.8782 53.9775 40.2462 54.0033C39.0541 55.3636 37.5534 56.4484 35.8735 57.1323C34.4892 57.561 33.007 57.4594 31.582 57.3448C31.2716 57.1859 30.9463 57.0639 30.6155 56.9604C30.3623 56.7626 30.1035 56.5723 29.8263 56.4078C29.5177 56.0437 29.2201 55.6648 29.0076 55.2342C28.771 54.349 28.7599 53.3473 29.0168 52.4694C29.3107 51.5767 30.0259 50.941 30.7504 50.3902C31.0794 50.2128 31.4046 50.0261 31.7317 49.8413C31.9332 49.8099 32.1236 49.7452 32.3047 49.651C32.6817 49.5456 33.0643 49.4514 33.445 49.3516C34.82 49.1279 36.3318 49.0466 37.6532 49.553C37.9009 49.614 38.1892 49.5826 38.3962 49.7655C38.4997 49.7822 38.7085 49.8154 38.8139 49.8321C39.1595 50.0538 39.5753 50.0169 39.9671 49.9836C40.2 49.1187 40.7119 48.3517 41.0427 47.5182C41.3772 46.6939 41.8005 45.9084 42.1627 45.0971C42.4455 44.4133 42.7708 43.7461 43.0942 43.0826C43.2993 42.5707 43.5211 42.0643 43.8187 41.5986C44.5154 39.9999 45.3378 38.4567 46.1362 36.9061C46.6057 36.0855 47.0492 35.252 47.5944 34.4776C49.1764 32.271 51.0597 30.1585 53.5455 28.9572C53.6416 28.9166 53.8375 28.8352 53.9336 28.7927C54.1055 28.7262 54.2773 28.6597 54.4492 28.5913ZM32.471 51.8595C31.8759 52.146 31.4194 52.608 31.1293 53.1994C31.1015 53.6208 31.1348 54.0477 31.3252 54.434C31.5765 54.6872 31.8223 54.9681 32.1716 55.0864C33.5781 55.4227 35.0954 55.1862 36.3059 54.3785C36.9251 53.9812 37.461 53.4729 37.9582 52.9351C37.9896 52.7595 38.0062 52.5858 38.0081 52.4102C37.0378 52.1441 36.1303 51.5749 35.0917 51.5952C34.2157 51.6008 33.286 51.4695 32.471 51.8595Z" fill="#E2E0D1"/>
<path d="M126.32 32.4539C126.875 31.8847 127.697 31.9623 128.418 32.0677C128.49 32.1748 128.636 32.3892 128.708 32.4964C128.714 32.9307 128.773 33.3891 128.579 33.7957C128.501 34.1136 128.397 34.424 128.268 34.7253C127.995 35.3999 127.826 36.1114 127.538 36.7804C127.497 36.9394 127.416 37.2536 127.375 37.4107C128.405 37.4014 129.438 37.3182 130.469 37.4051C130.843 37.4236 131.138 37.6768 131.454 37.8505C131.519 38.2368 131.53 38.6286 131.488 39.0204C131.057 39.2588 130.578 39.4288 130.083 39.4233C128.908 39.4529 127.732 39.4861 126.557 39.4806C126.108 40.2568 125.877 41.1384 125.429 41.9165C125.407 42.0181 125.365 42.2195 125.342 42.3193C124.688 43.8663 124.174 45.4778 123.772 47.1061C123.661 47.6623 123.585 48.2297 123.402 48.7694C123.358 49.1409 123.328 49.5179 123.215 49.8801C123.186 50.3773 123.04 50.9853 123.463 51.3642C123.742 51.5065 124.065 51.4326 124.369 51.4344C124.943 51.1535 125.507 50.8412 125.973 50.3921C126.522 49.9578 127.002 49.4458 127.46 48.9172C128.813 47.411 129.882 45.6811 130.965 43.9771C131.473 43.0789 131.894 42.1308 132.334 41.1957C132.46 40.9 132.65 40.6412 132.811 40.3659C133.23 39.9426 133.827 39.9426 134.382 40.0092C134.836 40.3899 135.282 40.9406 135.165 41.5782C135.005 42.3563 134.663 43.0826 134.385 43.8237C134.164 44.2969 133.999 44.7903 133.831 45.2819C133.487 46.1931 133.125 47.1042 132.898 48.0523C132.639 49.0207 132.14 50.1296 132.617 51.0999C133.097 51.1683 133.594 51.1276 134.018 50.8633C135.842 49.4495 137.302 47.557 138.261 45.4649C138.416 44.6998 138.779 43.9938 138.93 43.2268C139.004 42.981 139.089 42.7389 139.174 42.4968C139.388 41.885 139.431 41.2068 139.754 40.6394C139.775 40.547 139.815 40.3659 139.836 40.2753C140.028 40.1903 140.22 40.1053 140.414 40.0184C140.562 40.0202 140.858 40.0276 141.006 40.0295C141.259 40.1441 141.516 40.2605 141.767 40.388C141.887 40.5507 142.02 40.7041 142.168 40.8482C142.253 41.3879 142.281 41.9571 142.074 42.4746C141.562 44.0566 141.146 45.6645 140.769 47.2816C140.73 47.5367 140.697 47.7917 140.66 48.0486C140.425 48.9431 140.453 49.8949 140.495 50.8135C140.462 51.1424 140.756 51.2977 140.982 51.4658C142.203 51.4104 142.976 50.32 143.678 49.4551C144.552 48.4219 145.16 47.2077 145.85 46.0545C146.075 45.439 146.413 44.8365 146.291 44.1546C146.125 42.482 146.073 40.4675 147.42 39.2366C147.986 39.159 148.642 39.1461 148.905 39.7597C149.677 40.9757 149.075 42.5097 148.712 43.7738C148.686 44.0418 148.666 44.3117 148.651 44.5815C149.062 44.7626 149.468 44.953 149.871 45.1581C150.13 45.184 150.396 45.208 150.662 45.2339C151.71 43.0198 153.444 40.9794 155.802 40.1385C156.889 39.682 158.273 39.5674 159.282 40.2808C159.659 40.5562 159.862 40.9887 160.115 41.3694C160.186 42.1733 160.258 43.0013 160.088 43.7997C159.541 45.2856 158.271 46.3686 156.9 47.0839C156.598 47.2354 156.297 47.3851 156 47.5348C155.684 47.6457 155.368 47.7603 155.059 47.886C154.623 48.0098 154.185 48.1318 153.737 48.1983C153.359 48.3111 152.963 48.3111 152.575 48.3258C152.534 48.433 152.449 48.6474 152.407 48.7546C152.355 49.5438 152.338 50.466 152.921 51.0814C153.954 51.9002 155.405 51.6987 156.549 51.2274C157.851 50.7229 158.977 49.869 159.973 48.9006C160.526 48.5143 160.903 47.8934 161.5 47.581C162.376 47.4535 162.176 48.5051 161.94 49.0023C160.278 51.9482 157.075 54.3545 153.564 54.0828C153.043 54.0958 152.536 53.9775 152.048 53.8185C150.939 53.4156 150.047 52.4842 149.716 51.3494C149.487 50.7654 149.548 50.1296 149.537 49.5197C149.561 48.8544 149.502 48.1687 149.729 47.5311C149.823 47.3204 149.79 47.095 149.757 46.8769C149.139 46.8381 148.424 46.7253 147.999 46.2356C147.068 47.9322 146.058 49.6085 144.717 51.0167C143.702 52.1127 142.595 53.2142 141.159 53.7298C139.911 54.1549 138.191 53.8222 137.69 52.4601C137.459 51.6192 137.422 50.7358 137.416 49.8672C136.6 50.5658 136.064 51.5712 135.23 52.2735C134.454 52.9037 133.641 53.5265 132.67 53.8185C132.177 53.9035 131.676 53.8943 131.183 53.8518C130.443 53.5228 129.85 52.8834 129.632 52.0998C129.431 50.8726 129.73 49.6343 129.604 48.409C129.364 49.0596 128.895 49.5807 128.494 50.1333C127.841 50.8985 127.209 51.6858 126.435 52.3326C125.232 53.4397 123.633 54.3083 121.947 54.0015C121.849 53.9498 121.657 53.85 121.561 53.8001C120.506 53.3177 120.177 52.0813 120.195 51.0149C120.149 50.5011 120.336 50.0114 120.349 49.505C120.395 49.2684 120.266 48.9376 120.51 48.786C120.412 48.677 120.341 48.5532 120.299 48.4164C120.255 48.616 120.225 48.8378 120.062 48.9838C118.963 50.3865 117.736 51.7246 116.235 52.7041C115.793 52.9185 115.372 53.1772 114.915 53.3565C114.538 53.5931 114.078 53.6208 113.681 53.8111C113.416 53.8629 113.154 53.9202 112.903 54.0033C111.711 54.1845 110.424 54.1068 109.428 53.3583C108.816 52.9 108.384 52.2384 108.121 51.5287C107.73 50.4216 107.741 49.1945 107.937 48.0523C108.066 47.2336 108.347 46.4426 108.694 45.6941C108.842 45.3928 108.992 45.0934 109.145 44.794C109.855 43.5354 110.77 42.3803 111.923 41.5006C112.526 41.0848 113.167 40.7244 113.864 40.4934C115.067 40.1145 116.39 39.987 117.602 40.401C118.144 40.7521 118.567 41.2567 118.698 41.9035C118.73 42.4173 118.735 42.9329 118.704 43.4486C118.567 43.8145 118.434 44.1823 118.303 44.5519C117.961 44.8458 117.645 45.2283 117.179 45.317C116.819 45.4039 116.486 45.2025 116.153 45.1101C116.124 44.7829 116.078 44.4484 116.229 44.1453C116.475 43.5465 116.388 42.883 116.279 42.2658C115.906 42.1179 115.514 41.9922 115.109 42.0606C114.328 42.3175 113.636 42.8313 113.121 43.4671C112.481 44.2266 112.03 45.1193 111.638 46.0249C111.444 46.4333 111.398 46.8954 111.2 47.302C111.071 48.0893 111.082 48.8914 111.108 49.6879C111.075 50.5473 111.703 51.366 112.514 51.6137C113.008 51.6895 113.525 51.6821 114.006 51.5324C114.196 51.488 114.376 51.4178 114.544 51.3217C114.642 51.2977 114.836 51.2515 114.932 51.2274C116.495 50.5288 117.54 49.1224 118.733 47.9544C120.262 46.4148 121.413 44.526 122.106 42.4709C122.306 42.0495 122.494 41.6244 122.653 41.1883C122.82 40.8926 122.912 40.5673 123.018 40.2494C123.073 40.0849 123.184 39.756 123.239 39.5915C122.287 39.5989 121.336 39.6007 120.386 39.6155C120.251 39.4806 120.118 39.3475 119.987 39.2181C119.977 38.8116 119.975 38.4068 119.987 38.0039C120.118 37.869 120.253 37.7359 120.388 37.6047C121.607 37.5825 122.818 37.4587 124.036 37.3996C124.2 37.0614 124.348 36.7139 124.502 36.3683C125.202 35.1097 125.662 33.7328 126.32 32.4539ZM154.431 43.7387C153.802 44.661 153.379 45.6978 152.849 46.6736C153.534 46.7161 154.111 46.304 154.721 46.0582C155.532 45.6017 156.356 45.1544 157.022 44.4891C157.437 44.0585 157.754 43.5502 158.062 43.042C158.136 42.5152 157.949 41.7002 157.262 41.7963C155.972 41.678 155.177 42.8867 154.431 43.7387Z" fill="#E2E0D1"/>
<path d="M135.751 32.5962C136.361 32.0362 137.271 32.1434 138.025 32.2617C138.919 32.6424 138.976 33.7309 138.847 34.5626C138.649 34.9267 138.435 35.2815 138.189 35.6142C137.587 36.3017 136.637 36.4293 135.777 36.3017C135.337 36.0134 134.953 35.653 134.829 35.1208C134.705 34.1948 135.057 33.2209 135.751 32.5962Z" fill="#E2E0D1"/>
<path d="M73.3575 43.6186C74.5015 42.4044 75.6584 41.0885 77.2608 40.4878C78.0536 40.1699 79.0017 40.4158 79.5284 41.094C79.8759 41.8647 79.8168 42.7869 79.6098 43.5909C79.5876 44.2969 79.3178 44.9456 79.1052 45.6091C79.5783 45.6331 79.7096 45.123 79.9628 44.8347C81.1345 43.2656 82.5317 41.837 84.1821 40.7706C84.7513 40.3474 85.5054 40.5137 86.1615 40.5451C86.6087 40.9332 87.0393 41.3546 87.2888 41.9035C87.3572 42.6686 87.2537 43.4356 87.0005 44.1583C86.9525 44.3985 86.9063 44.6443 86.8212 44.8772C86.7566 45.0638 86.6937 45.2524 86.6309 45.4409C86.5089 45.8715 86.3888 46.304 86.2631 46.7346C86.2077 46.9249 86.1485 47.1134 86.0875 47.3038C86.0339 47.4831 85.9655 47.6568 85.8824 47.825C85.5737 49.1446 84.9934 50.4438 85.2651 51.8318C85.8159 51.8355 86.3648 51.8096 86.9174 51.8244C86.934 52.0979 86.9451 52.3714 86.9543 52.6505C86.5533 53.0885 86.0949 53.4655 85.6255 53.8278C84.6035 54.3693 83.2063 54.0699 82.5224 53.1273C81.9791 52.109 82.1842 50.9484 82.3709 49.869C82.576 49.078 82.7128 48.263 83.0141 47.5016C83.0344 47.3999 83.0732 47.1948 83.0935 47.0913C83.3744 46.3058 83.6276 45.5093 83.8587 44.7072C84.0213 44.3708 84.025 43.9975 84.0416 43.6334C83.2026 43.6833 82.6777 44.4336 82.0789 44.9326C80.227 46.9804 78.8483 49.3885 77.5472 51.8077C77.2885 52.401 76.8856 52.9111 76.5548 53.4655C76.4125 53.5875 76.2739 53.7132 76.1371 53.8389C75.9837 53.8463 75.6787 53.861 75.5272 53.8684C75.1557 53.6467 74.8212 53.3713 74.5329 53.0497C74.5052 52.4897 74.4664 51.9168 74.6198 51.3734C75.2149 49.1575 76.1315 47.0525 76.832 44.8716C77.0094 44.4872 76.9798 44.0566 76.9928 43.6463C76.686 43.6574 76.3792 43.6722 76.0761 43.6907C75.6067 44.0991 75.1095 44.4743 74.6863 44.9326C74.4109 45.2635 74.1281 45.5869 73.8583 45.9214C72.6589 47.5662 71.6609 49.346 70.722 51.1498C70.6056 51.3975 70.4873 51.647 70.3561 51.8891C70.1768 52.3308 70.0049 52.7762 69.8146 53.2142C69.6907 53.7317 69.1696 53.9498 68.7519 54.19C68.1198 54.3009 67.5284 53.996 67.168 53.484C67.0848 52.7226 67.1274 51.9445 67.3824 51.2182C67.29 51.2348 67.107 51.2699 67.0146 51.2866C66.0388 52.5452 64.8837 53.752 63.3941 54.3878C62.4534 54.5393 61.2077 54.5744 60.7291 53.5635C60.5794 53.0904 60.4315 52.5914 60.5295 52.0924C60.7069 51.3051 60.6736 50.4937 60.8104 49.699C60.4167 50.222 59.9473 50.7118 59.6701 51.3069C58.9271 52.2883 57.979 53.1107 56.9718 53.8185C56.7666 53.9183 56.5596 54.0163 56.3545 54.1124C55.5764 54.5633 54.632 54.5042 53.7689 54.4173C53.2145 54.2104 52.7155 53.7575 52.5066 53.1957C52.0464 51.6118 52.3662 49.8931 52.9853 48.3887C53.0648 48.2076 53.1258 48.0227 53.1683 47.8324C53.2976 47.5256 53.4178 47.2132 53.5305 46.9009C53.8225 46.3058 54.0776 45.6941 54.3622 45.0953C54.5488 44.6314 54.839 44.2174 55.0016 43.7424C55.1661 43.5206 55.2659 43.2619 55.3731 43.0106C55.5394 42.7259 55.6984 42.4358 55.8444 42.1401C56.0292 41.6762 56.4118 41.3214 56.8646 41.1218C57.0198 41.1218 57.3303 41.1236 57.4856 41.1236C57.6722 41.1994 57.8607 41.2751 58.0511 41.3509C58.1879 41.5339 58.3246 41.715 58.4669 41.8998C58.4651 42.2195 58.4614 42.5411 58.4355 42.8609C58.3468 43.0457 58.2784 43.236 58.2322 43.4375C58.0899 43.7905 57.942 44.1416 57.7923 44.4928C57.6168 44.9345 57.4467 45.3799 57.2305 45.805C56.9034 46.5331 56.6132 47.2742 56.3083 48.0098C56.2103 48.2741 56.1142 48.5384 56.0163 48.8045C55.715 49.6972 55.229 50.7303 55.7372 51.6414C56.0588 51.7227 56.4192 51.9371 56.7407 51.7172C58.3265 50.8264 59.4298 49.3109 60.3613 47.7899C60.742 47.1541 61.0525 46.4851 61.3778 45.8216C61.7178 45.0047 62.1096 44.2119 62.4146 43.3802C62.5606 43.0919 62.6936 42.7962 62.86 42.5208C63.1594 41.8721 63.5345 41.1679 64.2738 40.9517C64.5861 40.9462 64.9096 40.9166 65.2108 41.0386C65.5084 41.0792 65.7117 41.301 65.9057 41.5136C65.9224 42.031 65.9205 42.5522 65.8336 43.0678C65.3125 43.9771 65.0445 45.0084 64.6287 45.9694C64.3958 46.657 64.1297 47.3334 63.9596 48.0412C63.8654 48.2759 63.7896 48.5199 63.7083 48.762C63.6547 48.9431 63.5974 49.1242 63.5364 49.3054C63.407 50.0354 63.1298 50.7913 63.3738 51.5287C63.566 51.8872 63.9744 51.8133 64.3145 51.8041C65.6174 51.0759 66.5082 49.8432 67.2844 48.6031C67.4286 48.3203 67.5838 48.0431 67.7483 47.7732L67.8333 47.6383C68.7815 45.9177 69.6353 44.1121 70.1047 42.1955C70.2267 41.837 70.2507 41.399 70.5926 41.1661C71.1323 40.9684 71.8863 40.9184 72.2985 41.4008C72.5609 42.2547 72.3521 43.1492 72.1636 43.9956C72.0157 44.6794 71.6295 45.3023 71.6017 46.0138C71.866 45.6904 72.1395 45.3725 72.4556 45.099C72.9361 44.7256 72.8862 44.0122 73.3575 43.6186Z" fill="#E2E0D1"/>
<g clip-path="url(#clip0_1088_901)">
<path d="M27.6946 32.817V34.4721C27.6946 36.7949 25.7785 38.6779 23.4149 38.6779H14.8555C12.4919 38.6779 10.5758 36.7949 10.5758 34.4721V32.826C10.5758 30.5775 9.5675 29.0154 8.0313 27.3491C4.95387 24.0109 3.41339 19.2787 4.50761 14.2314C5.68185 8.81439 10.1111 4.37758 15.6056 3.14497C25.4122 0.944806 34.1141 8.20823 34.1141 17.469C34.1141 21.2877 32.6345 24.7667 30.2081 27.3826C28.6789 29.0311 27.6946 30.5864 27.6946 32.817Z" stroke="#EBA91D" stroke-width="4.04836" stroke-miterlimit="10" stroke-linecap="round" stroke-linejoin="round"/>
</g>
<g clip-path="url(#clip1_1088_901)">
<path d="M27.6946 32.817V34.4721C27.6946 36.7949 25.7785 38.6779 23.4149 38.6779H14.8555C12.4919 38.6779 10.5758 36.7949 10.5758 34.4721V32.826C10.5758 30.5775 9.5675 29.0154 8.0313 27.3491C4.95387 24.0109 3.41339 19.2787 4.50761 14.2314C5.68185 8.81439 10.1111 4.37758 15.6056 3.14497C25.4122 0.944806 34.1141 8.20823 34.1141 17.469C34.1141 21.2877 32.6345 24.7667 30.2081 27.3826C28.6789 29.0311 27.6946 30.5864 27.6946 32.817Z" stroke="#EBA91D" stroke-width="4.04836" stroke-miterlimit="10" stroke-linecap="round" stroke-linejoin="round"/>
</g>
<g clip-path="url(#clip2_1088_901)">
<path d="M27.6946 32.817V34.4721C27.6946 36.7949 25.7785 38.6779 23.4149 38.6779H14.8555C12.4919 38.6779 10.5758 36.7949 10.5758 34.4721V32.826C10.5758 30.5775 9.5675 29.0154 8.0313 27.3491C4.95387 24.0109 3.41339 19.2787 4.50761 14.2314C5.68185 8.81439 10.1111 4.37758 15.6056 3.14497C25.4122 0.944806 34.1141 8.20823 34.1141 17.469C34.1141 21.2877 32.6345 24.7667 30.2081 27.3826C28.6789 29.0311 27.6946 30.5864 27.6946 32.817Z" stroke="#EBA91D" stroke-width="4.04836" stroke-miterlimit="10" stroke-linecap="round" stroke-linejoin="round"/>
</g>
<g clip-path="url(#clip3_1088_901)">
<path d="M27.6946 32.817V34.4721C27.6946 36.7949 25.7785 38.6779 23.4149 38.6779H14.8555C12.4919 38.6779 10.5758 36.7949 10.5758 34.4721V32.826C10.5758 30.5775 9.5675 29.0154 8.0313 27.3491C4.95387 24.0109 3.41339 19.2787 4.50761 14.2314C5.68185 8.81439 10.1111 4.37758 15.6056 3.14497C25.4122 0.944806 34.1141 8.20823 34.1141 17.469C34.1141 21.2877 32.6345 24.7667 30.2081 27.3826C28.6789 29.0311 27.6946 30.5864 27.6946 32.817Z" stroke="#EBA91D" stroke-width="4.04836" stroke-miterlimit="10" stroke-linecap="round" stroke-linejoin="round"/>
</g>
<path d="M13.2651 43.6877H25.0054" stroke="#EBA91D" stroke-width="3.54232" stroke-linecap="round"/>
<path d="M19.1353 51.1267C21.381 51.1267 23.3826 50.0818 24.6806 48.4518C25.0599 47.9754 24.6809 47.3314 24.0719 47.3314H14.1986C13.5897 47.3314 13.2106 47.9754 13.59 48.4518C14.8879 50.0818 16.8896 51.1267 19.1353 51.1267Z" fill="#EBA91D"/>
<path d="M40.3672 23.5683C40.5147 23.1737 41.0732 23.1737 41.2207 23.5683L42.3018 26.4609C42.3494 26.5881 42.4425 26.693 42.5625 26.7568L45.1924 28.1552C45.5145 28.3265 45.5145 28.7876 45.1924 28.9589L42.5625 30.3574C42.4425 30.4211 42.3494 30.526 42.3018 30.6533L41.2207 33.5468C41.073 33.9409 40.5148 33.941 40.3672 33.5468L39.2861 30.6533C39.2386 30.5262 39.1461 30.4211 39.0264 30.3574L36.3955 28.9589C36.0738 28.7875 36.0738 28.3266 36.3955 28.1552L39.0264 26.7568C39.1461 26.693 39.2386 26.5879 39.2861 26.4609L40.3672 23.5683Z" fill="#EBA91D" stroke="#EBA91D" stroke-width="0.101209"/>
<path d="M41.874 12.3453C41.9803 12.0195 42.4416 12.0195 42.5479 12.3453L43.0527 13.8922C43.0864 13.9955 43.1562 14.0837 43.249 14.1403L44.6533 14.9957C44.8799 15.1338 44.8799 15.4632 44.6533 15.6012L43.249 16.4567C43.1562 16.5132 43.0864 16.6014 43.0527 16.7047L42.5479 18.2526C42.4415 18.5782 41.9803 18.5782 41.874 18.2526L41.3691 16.7047C41.3355 16.6015 41.2666 16.5132 41.1738 16.4567L39.7686 15.6012C39.5421 15.4631 39.542 15.1337 39.7686 14.9957L41.1738 14.1403C41.2665 14.0837 41.3355 13.9954 41.3691 13.8922L41.874 12.3453Z" fill="#EBA91D" stroke="#EBA91D" stroke-width="0.101209"/>
<defs>
<clipPath id="clip0_1088_901">
<rect width="18.1417" height="41.2312" fill="white" transform="translate(0.85791)"/>
</clipPath>
<clipPath id="clip1_1088_901">
<rect width="18.1417" height="4.94775" fill="white" transform="translate(0.85791 36.2834)"/>
</clipPath>
<clipPath id="clip2_1088_901">
<rect width="18.6915" height="41.2312" fill="white" transform="translate(18.9995)"/>
</clipPath>
<clipPath id="clip3_1088_901">
<rect width="18.6915" height="4.94775" fill="white" transform="translate(18.9995 36.2834)"/>
</clipPath>
</defs>
</svg>
