<svg width="163" height="60" viewBox="0 0 163 60" fill="none" xmlns="http://www.w3.org/2000/svg">
<path d="M103.202 26.1777C103.74 25.784 104.357 25.5364 104.941 25.224C105.825 25.1871 106.898 24.8858 107.606 25.5863C108.211 26.4845 108.017 27.6063 107.981 28.6247C107.42 32.3358 106.678 36.0192 106.03 39.7136C105.965 40.6026 105.682 41.4676 105.762 42.3658C106.303 42.3676 106.834 42.497 107.357 42.6393C107.617 42.7724 107.887 42.8906 108.148 43.033C108.286 43.3416 108.214 43.6854 108.218 44.0125C108.002 44.1437 107.787 44.2768 107.577 44.4098C106.813 44.456 106.052 44.4376 105.291 44.4727C105.261 45.0992 105.248 45.7294 105.109 46.3467C104.817 48.6662 104.634 51.0485 105.084 53.3605C105.185 53.9297 105.614 54.3918 106.13 54.632C106.191 54.7411 106.314 54.9573 106.375 55.0664C106.15 55.4988 105.769 55.8038 105.364 56.0588C104.392 56.2252 103.411 55.9646 102.685 55.2937C102.3 54.839 102.01 54.3216 101.77 53.7819C101.123 51.8746 101.337 49.8361 101.335 47.8585C101.304 46.7071 101.629 45.5816 101.546 44.4302C101.258 44.4505 100.975 44.4912 100.698 44.554C99.223 44.6446 97.7408 44.591 96.2752 44.7961C95.6431 44.8848 94.8705 44.6797 94.3697 45.1731C93.8688 46.2395 93.3902 47.317 92.9152 48.3945C92.8671 48.4906 92.7747 48.681 92.7285 48.7771C92.6269 49.0229 92.5289 49.2705 92.4236 49.5163C91.6899 50.9505 91.3332 52.612 90.2298 53.8336C89.9637 53.9612 89.6938 54.0794 89.4295 54.2088C89.0248 54.0998 88.609 53.9778 88.3502 53.6229C88.3576 53.172 88.3742 52.7229 88.4537 52.2793C88.694 51.8653 88.8455 51.4088 89.0174 50.9634C89.2577 50.494 89.4111 49.9894 89.6532 49.5219C90.1318 48.2171 90.9506 47.0361 91.2629 45.6758C90.7362 45.7331 90.2076 45.7793 89.6809 45.735C89.5682 45.6019 89.4573 45.4707 89.3482 45.3413C89.2225 44.6409 89.5645 43.957 90.1429 43.5652C90.7861 43.0422 91.6067 42.7742 92.4291 42.7391C92.6731 42.3491 92.8875 41.9425 93.0852 41.5267C93.2109 41.2883 93.3366 41.0517 93.4604 40.8133C93.7117 40.3383 93.9686 39.8689 94.196 39.381C94.2588 39.2387 94.3253 39.0982 94.3956 38.9578C95.9684 36.0709 97.4617 33.1268 99.3579 30.4322C99.515 30.2178 99.6721 30.0034 99.8273 29.7853C100.825 28.4731 101.903 27.2053 103.202 26.1777ZM99.3597 35.6033C99.1564 36.0099 98.9143 36.3962 98.7166 36.8046C98.2176 37.6308 97.8054 38.5031 97.336 39.344C97.2713 39.5602 97.1623 39.7562 97.0015 39.9132C96.7372 40.7911 95.9776 41.4823 95.9332 42.4212C97.8867 42.1606 99.8587 42.1606 101.829 42.1643C101.882 42.0959 101.99 41.9592 102.045 41.8908C102.372 39.2886 102.949 36.7252 103.45 34.1544C103.742 32.9383 103.936 31.7 104.25 30.4913C104.298 29.9461 104.468 29.4249 104.551 28.8871L104.27 28.9573C102.195 30.8055 100.748 33.2247 99.3597 35.6033Z" fill="#252525"/>
<path d="M54.4492 28.5913C55.6487 28.1995 57.0293 28.2291 58.1012 28.9499C58.4209 29.301 58.7462 29.6688 58.9237 30.1179C59.4522 32.0585 58.7961 34.0952 57.6983 35.7178C56.4342 37.4015 54.9446 39.015 53.0557 39.9982C52.7526 39.9501 52.2333 40.0703 52.1963 39.6341C51.9487 38.6527 53.0502 38.1408 53.6139 37.542C53.7359 37.4182 53.8597 37.2962 53.9817 37.1723C54.8484 36.1984 55.7966 35.2429 56.303 34.0157C56.4674 33.635 56.6208 33.2505 56.7761 32.8661C56.8186 32.0455 57.0552 31.1233 56.6042 30.3766C56.0405 30.3009 55.4491 30.2953 54.9482 30.6003C52.6861 32.1472 51.2704 34.5683 50.021 36.9432C49.7124 37.7009 49.2559 38.3903 48.9935 39.1702C48.8419 39.4641 48.6922 39.7598 48.5444 40.0555C48.3022 40.7097 47.9474 41.3122 47.7108 41.9665C47.5574 42.264 47.4114 42.5653 47.2636 42.8666C46.7757 43.9607 46.2212 45.0271 45.6797 46.0953C44.9866 47.5443 44.1088 48.8953 43.1754 50.1982C42.8853 50.7194 42.316 51.1149 42.316 51.7636C44.7187 52.9631 46.7165 54.8242 49.1191 56.0218C49.2152 56.0643 49.4056 56.1475 49.4999 56.19C49.681 56.2436 49.8565 56.3175 50.0266 56.4099C50.3371 56.5226 50.6679 56.5947 50.9599 56.7629C51.348 56.8516 51.738 56.9496 52.1224 57.0623C53.0169 57.3026 53.9576 57.2213 54.8762 57.236C55.8483 57.2767 56.7909 56.9551 57.654 56.5337C57.9608 56.3545 58.3285 56.4598 58.6631 56.4635C59.0105 57.8737 57.5911 58.7497 56.5599 59.3577C56.2438 59.4612 55.937 59.5888 55.6339 59.7218C55.377 59.7662 55.122 59.8216 54.8743 59.8992C53.2073 60.1192 51.5033 59.9824 49.9028 59.4649C49.4537 59.3004 49.0027 59.1378 48.5499 58.9918C46.3358 58.0714 44.3657 56.6945 42.4306 55.2992C42.2144 55.1458 42.0018 54.9924 41.7912 54.8371C41.2737 54.5617 40.8782 53.9777 40.2461 54.0036C39.054 55.3638 37.5533 56.4487 35.8733 57.1325C34.4891 57.5613 33.0068 57.4597 31.5819 57.3451C31.2714 57.1861 30.9461 57.0642 30.6153 56.9607C30.3621 56.7629 30.1034 56.5725 29.8261 56.4081C29.5175 56.044 29.2199 55.6651 29.0074 55.2345C28.7708 54.3492 28.7597 53.3475 29.0166 52.4696C29.3105 51.577 30.0257 50.9412 30.7502 50.3904C31.0792 50.213 31.4045 50.0263 31.7316 49.8415C31.933 49.8101 32.1234 49.7454 32.3045 49.6512C32.6815 49.5458 33.0641 49.4516 33.4448 49.3518C34.8199 49.1281 36.3317 49.0468 37.6531 49.5532C37.9008 49.6142 38.1891 49.5828 38.3961 49.7658C38.4996 49.7824 38.7084 49.8156 38.8138 49.8323C39.1594 50.0541 39.5752 50.0171 39.967 49.9838C40.1999 49.1189 40.7118 48.3519 41.0426 47.5184C41.3772 46.6941 41.8004 45.9086 42.1626 45.0973C42.4454 44.4135 42.7707 43.7463 43.0941 43.0828C43.2993 42.5708 43.521 42.0644 43.8186 41.5987C44.5154 40 45.3378 38.4568 46.1362 36.9062C46.6056 36.0856 47.0492 35.2521 47.5944 34.4777C49.1764 32.271 51.0597 30.1586 53.5455 28.9573C53.6416 28.9166 53.8375 28.8353 53.9336 28.7928C54.1055 28.7262 54.2774 28.6597 54.4492 28.5913ZM32.4709 51.8597C31.8757 52.1462 31.4193 52.6082 31.1291 53.1996C31.1014 53.621 31.1346 54.048 31.325 54.4342C31.5763 54.6874 31.8221 54.9683 32.1715 55.0866C33.5779 55.423 35.0953 55.1864 36.3058 54.3788C36.9249 53.9814 37.4609 53.4732 37.9581 52.9354C37.9895 52.7598 38.0061 52.5861 38.008 52.4105C37.0377 52.1443 36.1302 51.5751 35.0916 51.5954C34.2155 51.601 33.2859 51.4698 32.4709 51.8597Z" fill="#252525"/>
<path d="M126.321 32.4541C126.875 31.8848 127.698 31.9625 128.418 32.0678C128.491 32.175 128.637 32.3894 128.709 32.4966C128.714 32.9309 128.773 33.3892 128.579 33.7958C128.502 34.1137 128.398 34.4242 128.269 34.7255C127.995 35.4 127.827 36.1116 127.539 36.7806C127.498 36.9396 127.417 37.2538 127.376 37.4108C128.406 37.4016 129.439 37.3184 130.47 37.4053C130.843 37.4238 131.139 37.677 131.455 37.8507C131.52 38.237 131.531 38.6288 131.488 39.0206C131.058 39.259 130.579 39.429 130.084 39.4235C128.908 39.4531 127.733 39.4863 126.557 39.4808C126.108 40.257 125.877 41.1386 125.43 41.9167C125.408 42.0183 125.365 42.2198 125.343 42.3196C124.689 43.8665 124.175 45.4781 123.772 47.1063C123.661 47.6626 123.586 48.23 123.403 48.7697C123.358 49.1411 123.329 49.5182 123.216 49.8804C123.186 50.3776 123.04 50.9856 123.464 51.3645C123.743 51.5068 124.066 51.4329 124.369 51.4347C124.944 51.1538 125.508 50.8415 125.973 50.3924C126.522 49.958 127.003 49.4461 127.461 48.9175C128.814 47.4113 129.882 45.6814 130.965 43.9774C131.473 43.0792 131.895 42.1311 132.335 41.1959C132.46 40.9002 132.651 40.6414 132.812 40.3661C133.231 39.9428 133.828 39.9428 134.382 40.0094C134.837 40.3901 135.283 40.9408 135.166 41.5785C135.005 42.3565 134.663 43.0829 134.386 43.824C134.164 44.2971 134 44.7906 133.832 45.2822C133.488 46.1933 133.126 47.1045 132.898 48.0526C132.64 49.021 132.141 50.1299 132.618 51.1002C133.098 51.1686 133.595 51.1279 134.018 50.8636C135.843 49.4498 137.303 47.5573 138.262 45.4652C138.417 44.7 138.779 43.994 138.931 43.227C139.005 42.9812 139.09 42.7391 139.175 42.497C139.389 41.8853 139.432 41.207 139.755 40.6396C139.775 40.5472 139.816 40.3661 139.836 40.2755C140.029 40.1905 140.221 40.1055 140.415 40.0186C140.563 40.0205 140.858 40.0278 141.006 40.0297C141.26 40.1443 141.516 40.2607 141.768 40.3882C141.888 40.5509 142.021 40.7043 142.169 40.8484C142.254 41.3881 142.282 41.9573 142.075 42.4748C141.563 44.0568 141.147 45.6648 140.77 47.2819C140.731 47.5369 140.698 47.792 140.661 48.0489C140.426 48.9434 140.454 49.8952 140.496 50.8138C140.463 51.1427 140.757 51.298 140.982 51.4661C142.204 51.4107 142.976 50.3203 143.679 49.4553C144.553 48.4222 145.161 47.208 145.85 46.0547C146.076 45.4393 146.414 44.8368 146.292 44.1548C146.126 42.4822 146.074 40.4677 147.421 39.2368C147.987 39.1592 148.643 39.1463 148.905 39.7599C149.678 40.976 149.075 42.5099 148.713 43.7741C148.687 44.0421 148.667 44.3119 148.652 44.5817C149.062 44.7628 149.469 44.9532 149.872 45.1584C150.131 45.1842 150.397 45.2083 150.663 45.2341C151.711 43.02 153.444 40.9797 155.803 40.1387C156.889 39.6822 158.274 39.5677 159.283 40.281C159.66 40.5564 159.863 40.9889 160.116 41.3696C160.187 42.1736 160.259 43.0016 160.089 43.8C159.542 45.2859 158.272 46.3689 156.901 47.0841C156.599 47.2357 156.298 47.3854 156 47.5351C155.684 47.646 155.368 47.7606 155.06 47.8863C154.624 48.0101 154.186 48.1321 153.738 48.1986C153.359 48.3113 152.964 48.3113 152.576 48.3261C152.535 48.4333 152.45 48.6477 152.408 48.7549C152.356 49.5441 152.339 50.4663 152.921 51.0817C153.955 51.9005 155.405 51.699 156.549 51.2277C157.852 50.7232 158.978 49.8693 159.974 48.9009C160.527 48.5146 160.904 47.8936 161.501 47.5813C162.377 47.4538 162.177 48.5054 161.94 49.0025C160.279 51.9485 157.076 54.3548 153.565 54.0831C153.043 54.0961 152.537 53.9778 152.049 53.8189C150.94 53.416 150.048 52.4845 149.717 51.3497C149.488 50.7657 149.549 50.1299 149.537 49.52C149.561 48.8547 149.502 48.169 149.73 47.5314C149.824 47.3207 149.791 47.0952 149.757 46.8771C149.14 46.8383 148.425 46.7256 148 46.2358C147.068 47.9325 146.059 49.6087 144.717 51.017C143.703 52.113 142.596 53.2145 141.16 53.7302C139.912 54.1552 138.192 53.8226 137.691 52.4605C137.46 51.6195 137.423 50.7361 137.417 49.8675C136.6 50.5661 136.064 51.5715 135.231 52.2738C134.455 52.904 133.641 53.5268 132.671 53.8189C132.178 53.9039 131.677 53.8946 131.183 53.8521C130.444 53.5232 129.851 52.8837 129.633 52.1001C129.431 50.8729 129.731 49.6346 129.605 48.4093C129.365 49.0598 128.895 49.581 128.494 50.1336C127.842 50.8988 127.21 51.6861 126.435 52.3329C125.232 53.44 123.634 54.3086 121.948 54.0018C121.85 53.9501 121.658 53.8503 121.562 53.8004C120.506 53.318 120.177 52.0816 120.196 51.0152C120.15 50.5014 120.336 50.0116 120.349 49.5052C120.396 49.2687 120.266 48.9379 120.51 48.7863C120.412 48.6773 120.342 48.5534 120.299 48.4167C120.255 48.6163 120.226 48.8381 120.063 48.9841C118.963 50.3868 117.736 51.7249 116.235 52.7044C115.794 52.9188 115.372 53.1775 114.916 53.3568C114.539 53.5934 114.079 53.6211 113.681 53.8115C113.417 53.8632 113.154 53.9205 112.903 54.0037C111.711 54.1848 110.425 54.1072 109.429 53.3587C108.817 52.9003 108.384 52.2387 108.122 51.529C107.73 50.4219 107.741 49.1948 107.937 48.0526C108.066 47.2339 108.347 46.4428 108.695 45.6943C108.843 45.3931 108.992 45.0937 109.146 44.7943C109.855 43.5357 110.77 42.3806 111.924 41.5008C112.526 41.085 113.167 40.7246 113.864 40.4936C115.067 40.1147 116.391 39.9872 117.603 40.4012C118.145 40.7523 118.568 41.2569 118.699 41.9037C118.73 42.4175 118.736 42.9332 118.705 43.4488C118.568 43.8147 118.435 44.1825 118.303 44.5522C117.962 44.846 117.646 45.2286 117.18 45.3173C116.819 45.4042 116.487 45.2027 116.154 45.1103C116.124 44.7832 116.078 44.4487 116.23 44.1456C116.476 43.5468 116.389 42.8833 116.28 42.266C115.906 42.1181 115.515 41.9924 115.11 42.0608C114.328 42.3177 113.637 42.8315 113.121 43.4673C112.482 44.2269 112.031 45.1195 111.639 46.0251C111.445 46.4336 111.399 46.8956 111.201 47.3022C111.072 48.0896 111.083 48.8917 111.109 49.6882C111.075 50.5476 111.704 51.3663 112.515 51.614C113.008 51.6898 113.526 51.6824 114.006 51.5327C114.197 51.4883 114.376 51.4181 114.544 51.322C114.642 51.298 114.836 51.2518 114.932 51.2277C116.496 50.5291 117.54 49.1227 118.734 47.9546C120.263 46.4151 121.414 44.5263 122.107 42.4711C122.307 42.0497 122.495 41.6247 122.654 41.1885C122.82 40.8928 122.913 40.5675 123.018 40.2496C123.074 40.0851 123.184 39.7562 123.24 39.5917C122.288 39.5991 121.336 39.6009 120.386 39.6157C120.251 39.4808 120.118 39.3477 119.987 39.2183C119.978 38.8118 119.976 38.407 119.987 38.0041C120.118 37.8692 120.253 37.7361 120.388 37.6049C121.608 37.5827 122.819 37.4589 124.036 37.3998C124.201 37.0615 124.349 36.7141 124.502 36.3685C125.203 35.1099 125.663 33.733 126.321 32.4541ZM154.431 43.739C153.803 44.6612 153.38 45.698 152.849 46.6739C153.535 46.7164 154.112 46.3042 154.722 46.0584C155.533 45.6019 156.357 45.1547 157.023 44.4893C157.438 44.0587 157.754 43.5505 158.063 43.0422C158.137 42.5155 157.95 41.7004 157.263 41.7965C155.973 41.6783 155.178 42.887 154.431 43.739Z" fill="#252525"/>
<path d="M135.752 32.5964C136.362 32.0364 137.271 32.1436 138.025 32.2618C138.92 32.6426 138.977 33.7311 138.848 34.5628C138.65 34.9269 138.435 35.2817 138.19 35.6144C137.587 36.3019 136.637 36.4295 135.778 36.3019C135.338 36.0136 134.954 35.6532 134.83 35.121C134.706 34.195 135.057 33.221 135.752 32.5964Z" fill="#252525"/>
<path d="M73.3578 43.6189C74.5018 42.4046 75.6588 41.0887 77.2612 40.4881C78.054 40.1702 79.0021 40.416 79.5288 41.0943C79.8763 41.865 79.8172 42.7872 79.6102 43.5911C79.588 44.2971 79.3182 44.9458 79.1056 45.6093C79.5787 45.6334 79.71 45.1233 79.9632 44.835C81.1349 43.2659 82.5321 41.8372 84.1825 40.7708C84.7518 40.3476 85.5058 40.5139 86.1619 40.5454C86.6092 40.9335 87.0398 41.3549 87.2893 41.9038C87.3577 42.6689 87.2542 43.4359 87.001 44.1585C86.9529 44.3988 86.9067 44.6446 86.8217 44.8775C86.757 45.0641 86.6942 45.2527 86.6313 45.4412C86.5094 45.8718 86.3892 46.3043 86.2636 46.7349C86.2081 46.9252 86.149 47.1137 86.088 47.3041C86.0344 47.4834 85.966 47.6571 85.8828 47.8253C85.5742 49.1449 84.9939 50.4441 85.2656 51.8321C85.8163 51.8358 86.3652 51.8099 86.9178 51.8247C86.9345 52.0983 86.9455 52.3718 86.9548 52.6508C86.5537 53.0889 86.0954 53.4659 85.6259 53.8281C84.6039 54.3697 83.2067 54.0702 82.5229 53.1277C81.9795 52.1093 82.1847 50.9487 82.3713 49.8694C82.5765 49.0783 82.7132 48.2633 83.0145 47.5019C83.0348 47.4002 83.0736 47.1951 83.094 47.0916C83.3749 46.3061 83.6281 45.5095 83.8591 44.7074C84.0217 44.3711 84.0254 43.9977 84.0421 43.6337C83.203 43.6836 82.6781 44.4339 82.0793 44.9329C80.2274 46.9807 78.8487 49.3888 77.5476 51.8081C77.2889 52.4013 76.886 52.9114 76.5552 53.4659C76.4128 53.5879 76.2742 53.7136 76.1375 53.8392C75.9841 53.8466 75.6791 53.8614 75.5276 53.8688C75.1561 53.647 74.8216 53.3716 74.5333 53.0501C74.5055 52.4901 74.4667 51.9171 74.6201 51.3738C75.2152 49.1578 76.1319 47.0528 76.8324 44.8719C77.0098 44.4875 76.9802 44.0569 76.9932 43.6466C76.6864 43.6577 76.3796 43.6725 76.0765 43.6909C75.607 44.0994 75.1099 44.4746 74.6866 44.9329C74.4113 45.2637 74.1285 45.5872 73.8587 45.9217C72.6592 47.5665 71.6612 49.3463 70.7223 51.1501C70.6059 51.3978 70.4876 51.6473 70.3564 51.8894C70.1771 52.3311 70.0052 52.7765 69.8149 53.2145C69.6911 53.732 69.1699 53.9501 68.7522 54.1904C68.1201 54.3013 67.5287 53.9963 67.1683 53.4844C67.0851 52.7229 67.1277 51.9448 67.3827 51.2185C67.2903 51.2352 67.1073 51.2703 67.0149 51.2869C66.0391 52.5455 64.884 53.7524 63.3944 54.3881C62.4536 54.5397 61.208 54.5748 60.7293 53.5638C60.5796 53.0907 60.4318 52.5917 60.5297 52.0927C60.7071 51.3054 60.6739 50.494 60.8106 49.6993C60.417 50.2224 59.9475 50.7121 59.6703 51.3072C58.9273 52.2886 57.9792 53.111 56.972 53.8189C56.7668 53.9187 56.5599 54.0166 56.3547 54.1128C55.5766 54.5637 54.6322 54.5046 53.7691 54.4177C53.2147 54.2107 52.7157 53.7579 52.5068 53.1961C52.0466 51.6122 52.3664 49.8934 52.9855 48.389C53.065 48.2079 53.126 48.0231 53.1685 47.8327C53.2978 47.5259 53.418 47.2135 53.5307 46.9012C53.8227 46.3061 54.0778 45.6944 54.3624 45.0956C54.549 44.6317 54.8392 44.2177 55.0018 43.7427C55.1663 43.5209 55.2661 43.2622 55.3733 43.0108C55.5397 42.7262 55.6986 42.436 55.8446 42.1403C56.0294 41.6764 56.412 41.3216 56.8648 41.122C57.02 41.122 57.3305 41.1238 57.4858 41.1238C57.6724 41.1996 57.861 41.2754 58.0513 41.3512C58.1881 41.5341 58.3248 41.7153 58.4672 41.9001C58.4653 42.2198 58.4616 42.5414 58.4357 42.8611C58.347 43.0459 58.2786 43.2363 58.2324 43.4377C58.0901 43.7907 57.9423 44.1419 57.7926 44.4931C57.617 44.9348 57.447 45.3802 57.2307 45.8052C56.9036 46.5334 56.6134 47.2745 56.3085 48.0101C56.2105 48.2744 56.1144 48.5387 56.0165 48.8048C55.7152 49.6975 55.2292 50.7306 55.7374 51.6418C56.059 51.7231 56.4194 51.9375 56.741 51.7175C58.3267 50.8267 59.4301 49.3112 60.3615 47.7902C60.7422 47.1544 61.0527 46.4854 61.378 45.8219C61.7181 45.005 62.1099 44.2121 62.4148 43.3805C62.5608 43.0921 62.6939 42.7964 62.8602 42.5211C63.1596 41.8723 63.5348 41.1682 64.2741 40.952C64.5864 40.9464 64.9099 40.9169 65.2111 41.0388C65.5087 41.0795 65.712 41.3013 65.906 41.5138C65.9227 42.0313 65.9208 42.5525 65.8339 43.0681C65.3128 43.9774 65.0448 45.0087 64.6289 45.9697C64.3961 46.6573 64.1299 47.3337 63.9599 48.0415C63.8656 48.2763 63.7899 48.5202 63.7086 48.7623C63.655 48.9434 63.5977 49.1246 63.5367 49.3057C63.4073 50.0357 63.1301 50.7916 63.374 51.529C63.5662 51.8876 63.9747 51.8136 64.3147 51.8044C65.6177 51.0762 66.5085 49.8435 67.2847 48.6034C67.4289 48.3206 67.5842 48.0434 67.7486 47.7735L67.8337 47.6386C68.7818 45.918 69.6356 44.1123 70.105 42.1958C70.227 41.8372 70.2511 41.3992 70.593 41.1664C71.1326 40.9686 71.8867 40.9187 72.2988 41.4011C72.5613 42.2549 72.3524 43.1494 72.1639 43.9959C72.0161 44.6797 71.6298 45.3025 71.6021 46.0141C71.8664 45.6907 72.1399 45.3728 72.4559 45.0992C72.9364 44.7259 72.8865 44.0125 73.3578 43.6189Z" fill="#252525"/>
<g clip-path="url(#clip0_626_5155)">
<path d="M27.6943 32.8173V34.4724C27.6943 36.7952 25.7781 38.6783 23.4146 38.6783H14.8551C12.4915 38.6783 10.5754 36.7952 10.5754 34.4724V32.8263C10.5754 30.5777 9.56705 29.0157 8.03084 27.3493C4.95339 24.0111 3.4129 19.2789 4.50712 14.2315C5.68137 8.81449 10.1107 4.37765 15.6052 3.14502C25.4119 0.944845 34.1139 8.20833 34.1139 17.4692C34.1139 21.2879 32.6343 24.7669 30.2078 27.3828C28.6786 29.0313 27.6943 30.5867 27.6943 32.8173Z" stroke="#EBA91D" stroke-width="4.0484" stroke-miterlimit="10" stroke-linecap="round" stroke-linejoin="round"/>
</g>
<g clip-path="url(#clip1_626_5155)">
<path d="M27.6943 32.8173V34.4724C27.6943 36.7952 25.7781 38.6782 23.4146 38.6782H14.8551C12.4915 38.6782 10.5754 36.7952 10.5754 34.4724V32.8262C10.5754 30.5777 9.56705 29.0156 8.03084 27.3492C4.95339 24.0111 3.4129 19.2789 4.50712 14.2314C5.68137 8.81443 10.1107 4.37759 15.6052 3.14496C25.4119 0.944784 34.1139 8.20827 34.1139 17.4691C34.1139 21.2878 32.6343 24.7669 30.2078 27.3828C28.6786 29.0313 27.6943 30.5866 27.6943 32.8173Z" stroke="#EBA91D" stroke-width="4.0484" stroke-miterlimit="10" stroke-linecap="round" stroke-linejoin="round"/>
</g>
<g clip-path="url(#clip2_626_5155)">
<path d="M27.6943 32.8173V34.4724C27.6943 36.7952 25.7781 38.6783 23.4146 38.6783H14.8551C12.4915 38.6783 10.5754 36.7952 10.5754 34.4724V32.8263C10.5754 30.5777 9.56705 29.0157 8.03084 27.3493C4.95339 24.0111 3.4129 19.2789 4.50712 14.2315C5.68137 8.81449 10.1107 4.37765 15.6052 3.14502C25.4119 0.944845 34.1139 8.20833 34.1139 17.4692C34.1139 21.2879 32.6343 24.7669 30.2078 27.3828C28.6786 29.0313 27.6943 30.5867 27.6943 32.8173Z" stroke="#EBA91D" stroke-width="4.0484" stroke-miterlimit="10" stroke-linecap="round" stroke-linejoin="round"/>
</g>
<g clip-path="url(#clip3_626_5155)">
<path d="M27.6943 32.8173V34.4724C27.6943 36.7952 25.7781 38.6782 23.4146 38.6782H14.8551C12.4915 38.6782 10.5754 36.7952 10.5754 34.4724V32.8262C10.5754 30.5777 9.56705 29.0156 8.03084 27.3492C4.95339 24.0111 3.4129 19.2789 4.50712 14.2314C5.68137 8.81443 10.1107 4.37759 15.6052 3.14496C25.4119 0.944784 34.1139 8.20827 34.1139 17.4691C34.1139 21.2878 32.6343 24.7669 30.2078 27.3828C28.6786 29.0313 27.6943 30.5866 27.6943 32.8173Z" stroke="#EBA91D" stroke-width="4.0484" stroke-miterlimit="10" stroke-linecap="round" stroke-linejoin="round"/>
</g>
<path d="M13.2646 43.6882H25.005" stroke="#EBA91D" stroke-width="3.54235" stroke-linecap="round"/>
<path d="M19.1348 51.1272C21.3805 51.1272 23.3822 50.0823 24.6802 48.4522C25.0595 47.9759 24.6805 47.3318 24.0715 47.3318H14.1981C13.5892 47.3318 13.2101 47.9759 13.5895 48.4522C14.8875 50.0823 16.8891 51.1272 19.1348 51.1272Z" fill="#EBA91D"/>
<path d="M40.3667 23.5685C40.5142 23.1738 41.0727 23.1738 41.2202 23.5685L42.3013 26.461C42.3489 26.5883 42.442 26.6941 42.562 26.7579L45.1919 28.1554C45.5141 28.3266 45.514 28.7878 45.1919 28.9591L42.562 30.3575C42.4421 30.4213 42.3489 30.5262 42.3013 30.6534L41.2202 33.547C41.0725 33.9412 40.5143 33.9413 40.3667 33.547L39.2856 30.6534C39.2381 30.5264 39.1456 30.4213 39.0259 30.3575L36.395 28.9591C36.0733 28.7877 36.0733 28.3267 36.395 28.1554L39.0259 26.7579C39.1458 26.6942 39.238 26.5882 39.2856 26.461L40.3667 23.5685Z" fill="#EBA91D" stroke="#EBA91D" stroke-width="0.10121"/>
<path d="M41.8736 12.3454C41.9799 12.0196 42.4411 12.0196 42.5474 12.3454L43.0523 13.8923C43.086 13.9956 43.1558 14.0838 43.2486 14.1404L44.6529 14.9958C44.8795 15.1339 44.8795 15.4633 44.6529 15.6013L43.2486 16.4568C43.1558 16.5133 43.086 16.6015 43.0523 16.7048L42.5474 18.2527C42.4411 18.5783 41.9799 18.5784 41.8736 18.2527L41.3687 16.7048C41.335 16.6015 41.2661 16.5133 41.1734 16.4568L39.7681 15.6013C39.5416 15.4632 39.5416 15.1338 39.7681 14.9958L41.1734 14.1404C41.2661 14.0838 41.3351 13.9955 41.3687 13.8923L41.8736 12.3454Z" fill="#EBA91D" stroke="#EBA91D" stroke-width="0.10121"/>
<defs>
<clipPath id="clip0_626_5155">
<rect width="18.1419" height="36.2838" fill="white" transform="translate(0.857239)"/>
</clipPath>
<clipPath id="clip1_626_5155">
<rect width="18.1419" height="4.94779" fill="white" transform="translate(0.857239 36.2838)"/>
</clipPath>
<clipPath id="clip2_626_5155">
<rect width="18.6916" height="36.2838" fill="white" transform="translate(18.9991)"/>
</clipPath>
<clipPath id="clip3_626_5155">
<rect width="18.6916" height="4.94779" fill="white" transform="translate(18.9991 36.2838)"/>
</clipPath>
</defs>
</svg>
