<svg width="31" height="30" viewBox="0 0 31 30" fill="none" xmlns="http://www.w3.org/2000/svg">
<path d="M14.2812 4.20215C15.3556 3.52912 16.7724 3.85431 17.4453 4.92871C18.0713 5.92782 17.8325 7.22166 16.9316 7.93945L20.5732 13.1426L26.165 10.3477C26.1626 10.3167 26.1604 10.2858 26.1592 10.2549V10.2451L26.1709 10.0107C26.2882 8.85311 27.2657 7.94941 28.4541 7.94922C29.7219 7.94922 30.75 8.97729 30.75 10.2451V10.2461C30.7467 11.3419 29.9693 12.27 28.9111 12.4824L26.6592 22.6201V25.2451C26.6591 25.7596 26.242 26.1767 25.7275 26.1768H5.27246C4.7579 26.1766 4.34087 25.7595 4.34082 25.2451V22.6201L2.08789 12.4834C1.02296 12.2674 0.244643 11.3269 0.25 10.2236C0.256309 8.95591 1.28915 7.93329 2.55664 7.93945C3.82416 7.94564 4.8469 8.97833 4.84082 10.2461V10.2549C4.83962 10.2859 4.83646 10.3168 4.83398 10.3477L10.4258 13.1426L14.0664 7.93945C13.8654 7.77864 13.692 7.5853 13.5547 7.36621C12.8815 6.29202 13.2071 4.87535 14.2812 4.20215ZM6.2041 24.3135H24.7959V23.4492H6.2041V24.3135ZM11.4902 14.8701C11.2253 15.2482 10.7236 15.3759 10.3105 15.1699V15.1689L3.99707 12.0127C3.9679 12.0365 3.9385 12.0597 3.9082 12.082L6.01953 21.5859H24.9805L27.0908 12.082C27.0605 12.0597 27.0311 12.0365 27.002 12.0127L20.6895 15.1689C20.2762 15.3757 19.7735 15.249 19.5088 14.8701V14.8691L15.5 9.14258L11.4902 14.8701ZM2.5459 9.81348C2.30729 9.81348 2.11328 10.0066 2.11328 10.2451C2.11356 10.4836 2.30742 10.6766 2.5459 10.6768C2.7842 10.6766 2.97749 10.4836 2.97754 10.2451C2.97754 10.0068 2.78417 9.81367 2.5459 9.81348ZM28.4541 9.81348C28.2158 9.81391 28.0226 10.0068 28.0225 10.2451L28.0312 10.332C28.0715 10.5288 28.2456 10.6766 28.4541 10.6768C28.6927 10.6768 28.8867 10.4837 28.8867 10.2451C28.8867 10.0066 28.6927 9.81348 28.4541 9.81348ZM15.5 5.72266C15.2615 5.72289 15.0685 5.91583 15.0684 6.1543L15.0771 6.24121C15.1174 6.43796 15.2914 6.58593 15.5 6.58594C15.7384 6.58594 15.9316 6.3927 15.9316 6.1543C15.9316 5.91568 15.7385 5.72266 15.5 5.72266Z" fill="#EBA91D" stroke="#EBA91D" stroke-width="0.5"/>
</svg>
