<svg width="24" height="24" viewBox="0 0 24 24" fill="none" xmlns="http://www.w3.org/2000/svg">
<path d="M5.16699 4.01587H10.167C10.8016 4.01612 11.3174 4.53272 11.3174 5.16724V8.16724C11.3171 8.80168 10.8014 9.31738 10.167 9.31763H5.16699C4.53246 9.31763 4.01586 8.80183 4.01562 8.16724V5.16724C4.01562 4.53256 4.53232 4.01587 5.16699 4.01587Z" fill="white" stroke="white" stroke-width="0.0312495"/>
<path d="M5.16699 10.6824H10.167C10.8016 10.6826 11.3174 11.1991 11.3174 11.8337V18.8337C11.3172 19.4681 10.8015 19.9839 10.167 19.9841H5.16699C4.53244 19.9841 4.01582 19.4682 4.01562 18.8337V11.8337C4.01562 11.1989 4.53232 10.6824 5.16699 10.6824Z" fill="white" stroke="white" stroke-width="0.0312495"/>
<path d="M13.8336 14.6824H18.8336C19.4681 14.6826 19.9839 15.1991 19.9839 15.8337V18.8337C19.9838 19.4682 19.468 19.9839 18.8336 19.9841H13.8336C13.1989 19.9841 12.6824 19.4683 12.6822 18.8337V15.8337C12.6822 15.1989 13.1988 14.6824 13.8336 14.6824Z" fill="white" stroke="white" stroke-width="0.0312495"/>
<path d="M13.8336 4.01587H18.8336C19.4681 4.01605 19.9839 4.53268 19.9839 5.16724V12.1663C19.9839 12.8009 19.4681 13.3174 18.8336 13.3176H13.8336C13.1988 13.3176 12.6822 12.8011 12.6822 12.1663V5.16724C12.6822 4.53257 13.1988 4.01587 13.8336 4.01587Z" fill="white" stroke="white" stroke-width="0.0312495"/>
</svg>
