<svg width="24" height="24" viewBox="0 0 24 24" fill="none" xmlns="http://www.w3.org/2000/svg">
<path d="M5.16699 4.50024H10.167C10.5341 4.50049 10.833 4.80027 10.833 5.16724V8.16724C10.8328 8.53417 10.5339 8.833 10.167 8.83325H5.16699C4.80001 8.83325 4.50023 8.53435 4.5 8.16724V5.16724C4.5 4.80008 4.79983 4.50024 5.16699 4.50024Z" stroke="#EFE1BC"/>
<path d="M5.16699 11.1667H10.167C10.5341 11.167 10.833 11.4666 10.833 11.8337V18.8337C10.8328 19.2005 10.534 19.4995 10.167 19.4998H5.16699C4.79996 19.4998 4.5002 19.2007 4.5 18.8337V11.8337C4.5 11.4664 4.79987 11.1667 5.16699 11.1667Z" stroke="#EFE1BC"/>
<path d="M13.8335 15.1667H18.8335C19.2005 15.1669 19.4995 15.4665 19.4995 15.8337V18.8337C19.4993 19.2006 19.2004 19.4996 18.8335 19.4998H13.8335C13.4663 19.4998 13.1667 19.2007 13.1665 18.8337V15.8337C13.1665 15.4665 13.4662 15.1667 13.8335 15.1667Z" stroke="#EFE1BC"/>
<path d="M13.8335 4.50024H18.8335C19.2005 4.50043 19.4995 4.80019 19.4995 5.16724V12.1663C19.4995 12.5335 19.2005 12.8331 18.8335 12.8333H13.8335C13.4662 12.8333 13.1665 12.5335 13.1665 12.1663V5.16724C13.1665 4.80011 13.4662 4.50024 13.8335 4.50024Z" stroke="#EFE1BC"/>
</svg>
