<svg width="16" height="16" viewBox="0 0 16 16" fill="none" xmlns="http://www.w3.org/2000/svg">
<g clip-path="url(#clip0_741_1082)">
<path d="M12.7278 0.747803C13.1343 0.747803 13.5253 0.909601 13.8127 1.19702L14.803 2.18726C15.0904 2.47468 15.2532 2.8657 15.2532 3.27222C15.2531 3.67869 15.0904 4.06979 14.803 4.35718C13.3855 5.77465 10.0598 9.10006 9.24829 9.90894C9.06364 10.0929 8.8434 10.2386 8.60669 10.3337L8.60571 10.3328C8.2791 10.4683 7.71936 10.6928 7.18188 10.8865C6.91281 10.9834 6.64821 11.0736 6.42114 11.1414C6.19695 11.2082 6.00039 11.2557 5.87134 11.2644C5.56449 11.285 5.26378 11.1715 5.04614 10.9539C4.82853 10.7362 4.71499 10.4355 4.7356 10.1287C4.74427 9.99956 4.79279 9.80295 4.85962 9.57886C4.92728 9.35201 5.0169 9.08771 5.11353 8.81909C5.30687 8.28163 5.52938 7.72198 5.66235 7.39722L5.74438 7.21948C5.83513 7.04689 5.95154 6.88877 6.09009 6.75073L11.6438 1.19702C11.9311 0.909705 12.3214 0.747883 12.7278 0.747803ZM12.7278 1.94702C12.6393 1.9471 12.5551 1.98302 12.4924 2.04565L6.93774 7.59937C6.86764 7.66889 6.81266 7.75319 6.77563 7.84546L6.77271 7.85327H6.77173L6.77075 7.85522C6.65518 8.1372 6.46143 8.60577 6.28833 9.06128C6.20108 9.29089 6.11901 9.51689 6.05591 9.71265C6.01655 9.83477 5.98738 9.94355 5.96606 10.033C6.05559 10.0116 6.1649 9.9836 6.28735 9.94409C6.48279 9.88103 6.70755 9.79896 6.93677 9.71167C7.39531 9.53704 7.86748 9.34079 8.14771 9.22437L8.15063 9.22241L8.15356 9.22144L8.15552 9.22534L8.15454 9.22241C8.24657 9.18546 8.32988 9.13008 8.39966 9.0603V9.05933H8.40063C9.21343 8.25053 12.5377 4.92487 13.9543 3.50757C14.017 3.44487 14.0529 3.36073 14.053 3.27222C14.053 3.18362 14.0171 3.09862 13.9543 3.03589L12.9641 2.04565C12.9014 1.98292 12.8164 1.94702 12.7278 1.94702Z" fill="#FE7D13" stroke="#FE7D13" stroke-width="0.2"/>
<path d="M10.4167 2.44019C10.6496 2.28701 10.9666 2.31301 11.1716 2.51733L13.4832 4.82886L13.5593 4.92261C13.691 5.12241 13.691 5.38394 13.5593 5.58374L13.4832 5.67749C13.2488 5.91188 12.8679 5.91188 12.6335 5.67749L10.323 3.36597C10.0886 3.13158 10.0886 2.75172 10.323 2.51733L10.4167 2.44019Z" fill="#FE7D13" stroke="#FE7D13" stroke-width="0.2"/>
<path d="M6.24304 6.59741C6.47684 6.36347 6.85715 6.36405 7.0907 6.59839L9.40222 8.90894C9.63673 9.14264 9.63665 9.52381 9.40222 9.75757C9.16846 9.99199 8.7873 9.99207 8.55359 9.75757L6.24304 7.44604C6.00849 7.2123 6.00849 6.83116 6.24304 6.59741Z" fill="#FE7D13" stroke="#FE7D13" stroke-width="0.2"/>
<path d="M5.66638 2.06714C5.99761 2.06714 6.26697 2.33552 6.26697 2.66675C6.26697 2.99798 5.99761 3.26636 5.66638 3.26636H3.33337C2.55994 3.26636 1.93298 3.89331 1.93298 4.66675V12.6667C1.93298 13.0382 2.08056 13.3944 2.34314 13.657C2.60572 13.9196 2.9619 14.0671 3.33337 14.0671H12.0004C12.3716 14.0671 12.7272 13.9193 12.9896 13.657C13.2522 13.3944 13.3998 13.0382 13.3998 12.6667V10.3337C13.3998 10.0025 13.6691 9.73315 14.0004 9.73315C14.3314 9.73333 14.6 10.0026 14.6 10.3337V12.6667C14.6 13.3566 14.3265 14.0176 13.8392 14.5056H13.8383C13.3503 14.9927 12.69 15.2663 12.0004 15.2664H3.33337C2.6435 15.2664 1.98256 14.993 1.49451 14.5056C1.00715 14.0176 0.733765 13.3566 0.733765 12.6667V4.66675C0.733765 3.23085 1.89748 2.06714 3.33337 2.06714H5.66638Z" fill="#FE7D13" stroke="#FE7D13" stroke-width="0.2"/>
</g>
<defs>
<clipPath id="clip0_741_1082">
<rect width="16" height="16" fill="white"/>
</clipPath>
</defs>
</svg>
