<svg width="31" height="30" viewBox="0 0 31 30" fill="none" xmlns="http://www.w3.org/2000/svg">
<path d="M15.5 0.474609C18.2475 0.474609 21.556 1.20761 24.1826 2.75879C26.8115 4.31136 28.7754 6.69697 28.7754 10C28.7754 12.0611 28.1795 16.1023 28.1426 16.3555C28.1467 18.0162 27.7911 19.7304 27.0879 21.3574L27.0869 21.3594C26.8758 21.8242 26.6487 22.2598 26.4082 22.665L26.1631 23.0605C26.1388 23.0976 26.1089 23.1349 26.0752 23.1699C23.821 26.7235 19.8412 28.9004 15.5 28.9004C11.0996 28.9004 7.09028 26.6746 4.7666 22.9482H4.76562C4.75297 22.9315 4.74036 22.9141 4.72949 22.8965V22.8955C4.44194 22.433 4.17622 21.9274 3.91797 21.3555V21.3535C3.20918 19.7275 2.85027 18.0152 2.84961 16.2549C2.8433 16.2178 2.83197 16.1518 2.81934 16.0674C2.80089 15.9442 2.77587 15.7703 2.74609 15.5576C2.68651 15.132 2.60834 14.5499 2.53125 13.9043C2.37735 12.6154 2.22461 11.0648 2.22461 10C2.22461 6.92862 3.59473 5.18882 5.13281 4.21289C6.62197 3.26803 8.25852 3.04529 8.92969 2.99219C9.65846 2.35176 12.0872 0.474609 15.5 0.474609ZM4.39355 16.1572C4.39977 17.7971 4.71472 19.3039 5.33594 20.7266L5.50195 21.083C5.66936 21.4296 5.84168 21.7467 6.02246 22.041C6.03354 22.0554 6.04685 22.0729 6.05859 22.0928L6.25391 22.3975C8.3159 25.5056 11.7444 27.3496 15.5 27.3496C19.314 27.3496 22.8071 25.4371 24.8457 22.2344L24.8477 22.2314C24.8706 22.197 24.9001 22.1576 24.9355 22.1201C25.156 21.7627 25.4259 21.2665 25.6699 20.7295C26.2862 19.3038 26.5996 17.7923 26.5996 16.25V16.2363L26.75 16.25L26.6006 16.2363C26.615 16.0834 27.2246 11.9719 27.2246 10C27.2246 7.2714 25.5376 5.28198 23.2129 3.9668C20.8867 2.65081 17.9443 2.02539 15.5 2.02539C13.8079 2.02539 12.3874 2.58742 11.3848 3.15527C10.8838 3.43904 10.4877 3.72304 10.2168 3.9375C9.94878 4.14966 9.80544 4.29231 9.80176 4.2959L9.79785 4.29883C9.65215 4.44298 9.4555 4.52385 9.25195 4.52539C9.14404 4.52599 7.76651 4.54699 6.4209 5.24414C5.75006 5.59173 5.09011 6.10584 4.59766 6.86621C4.10567 7.626 3.77539 8.6411 3.77539 10C3.77539 11.9996 4.38234 16.0734 4.3916 16.1348L4.39355 16.1455V16.1572Z" fill="#EBA91D" stroke="#EBA91D" stroke-width="0.3"/>
<path d="M10.4513 7.43079C10.8437 7.37537 11.1992 7.63473 11.295 8.00696C11.2954 8.00709 11.6378 9.07843 13.5558 10.1573C15.4959 11.2486 19.0526 12.3497 25.5001 12.3497C25.8453 12.3498 26.1495 12.5778 26.2443 12.9113L27.8546 18.5363L27.8722 18.6134C27.9415 18.9997 27.7086 19.3808 27.3253 19.4923C27.2529 19.5148 27.1795 19.5245 27.1105 19.5245C26.774 19.5245 26.4641 19.3035 26.3663 18.964H26.3654L24.9152 13.8956C16.2357 13.8059 12.5039 11.7041 10.9171 10.1105C10.4048 11.2547 9.47473 12.0822 8.547 12.6622C7.61027 13.2479 6.66436 13.5866 6.12512 13.7521L4.63586 18.963C4.51806 19.3758 4.08664 19.6156 3.6759 19.4943V19.4933C3.26628 19.3749 3.02797 18.9468 3.14563 18.5363L4.75598 12.9113C4.83221 12.6415 5.05017 12.4341 5.32239 12.3702L5.52551 12.3146C5.90133 12.2044 6.74194 11.9253 7.57825 11.4259C8.69766 10.7574 9.76868 9.71983 9.76868 8.19836C9.76888 7.8064 10.0622 7.47632 10.4513 7.42981V7.43079Z" fill="#EBA91D" stroke="#EBA91D" stroke-width="0.3"/>
<path d="M27.746 13.6177L27.745 13.6187C29.3871 13.8162 30.6248 15.2164 30.6249 16.8735C30.6249 18.6812 29.1556 20.1497 27.3505 20.1499C27.1977 20.1499 27.0438 20.1358 26.9012 20.1235H26.8993V20.1226C26.473 20.0807 26.1612 19.701 26.203 19.2749L26.2147 19.1968C26.2925 18.8105 26.6498 18.5588 27.0428 18.5786L27.0497 18.5796C27.1576 18.5899 27.2544 18.6001 27.3505 18.6001C28.301 18.5999 29.0748 17.826 29.0751 16.8755C29.0751 16.0532 28.5015 15.3534 27.7177 15.1831L27.5585 15.1567C27.1334 15.1069 26.8297 14.7202 26.8807 14.2944C26.9315 13.8745 27.3182 13.5565 27.746 13.6177Z" fill="#EBA91D" stroke="#EBA91D" stroke-width="0.3"/>
<path d="M3.26855 13.6172C3.69889 13.5806 4.07185 13.8756 4.12012 14.3018C4.16527 14.7009 3.89666 15.0614 3.51367 15.1445L3.43555 15.1582C2.57575 15.2523 1.90039 16.0074 1.90039 16.875C1.90042 17.8259 2.67411 18.5996 3.625 18.5996C3.67098 18.5996 3.71486 18.5975 3.75586 18.5938L3.86914 18.5781C4.29034 18.4834 4.69853 18.7666 4.7832 19.1807L4.79492 19.2598C4.83501 19.6513 4.57214 20.0144 4.18066 20.0957C4.0072 20.1317 3.81925 20.1504 3.625 20.1504C1.81971 20.1504 0.349635 18.6816 0.349609 16.875C0.349609 15.2013 1.60345 13.7994 3.26465 13.6172L3.26855 13.6162V13.6172Z" fill="#EBA91D" stroke="#EBA91D" stroke-width="0.3"/>
<path d="M10.5 14.8496C11.6166 14.8496 12.5254 15.7584 12.5254 16.875C12.5254 17.9916 11.6166 18.9004 10.5 18.9004C9.38341 18.9004 8.47461 17.9916 8.47461 16.875C8.47461 15.7584 9.38341 14.8496 10.5 14.8496ZM10.5 16.4004C10.238 16.4004 10.0254 16.6139 10.0254 16.875C10.0254 17.1361 10.238 17.3496 10.5 17.3496C10.762 17.3496 10.9746 17.1361 10.9746 16.875C10.9746 16.6139 10.762 16.4004 10.5 16.4004Z" fill="#EBA91D" stroke="#EBA91D" stroke-width="0.3"/>
<path d="M20.5 14.8496C21.6166 14.8496 22.5254 15.7584 22.5254 16.875C22.5254 17.9916 21.6166 18.9004 20.5 18.9004C19.3834 18.9004 18.4746 17.9916 18.4746 16.875C18.4746 15.7584 19.3834 14.8496 20.5 14.8496ZM20.5 16.4004C20.238 16.4004 20.0254 16.6139 20.0254 16.875C20.0254 17.1361 20.238 17.3496 20.5 17.3496C20.762 17.3496 20.9746 17.1361 20.9746 16.875C20.9746 16.6139 20.762 16.4004 20.5 16.4004Z" fill="#EBA91D" stroke="#EBA91D" stroke-width="0.3"/>
<path d="M18.0456 21.3268C18.3479 21.0245 18.839 21.0245 19.1413 21.3268C19.4433 21.6291 19.4435 22.1203 19.1413 22.4225C18.1381 23.4282 16.8175 23.9283 15.4997 23.9283C14.1819 23.9283 12.8623 23.4266 11.8581 22.4225C11.5558 22.1202 11.5558 21.6291 11.8581 21.3268C12.1604 21.0245 12.6515 21.0245 12.9538 21.3268C14.3577 22.7304 16.6418 22.7306 18.0456 21.3268Z" fill="#EBA91D" stroke="#EBA91D" stroke-width="0.3"/>
</svg>
