<svg width="29" height="29" viewBox="0 0 29 29" fill="none" xmlns="http://www.w3.org/2000/svg">
<path d="M14.1818 12.5868C13.7034 12.5868 13.3068 12.1901 13.3068 11.7118V7.82678C13.3068 7.34845 13.7034 6.95178 14.1818 6.95178C14.6601 6.95178 15.0568 7.34845 15.0568 7.82678V11.7118C15.0568 12.2018 14.6601 12.5868 14.1818 12.5868Z" fill="#252525"/>
<path d="M14.205 24.0551C11.195 24.0551 8.19669 23.5768 5.33836 22.6201C4.27669 22.2701 3.47169 21.5118 3.12169 20.5551C2.77169 19.5985 2.88836 18.5018 3.46002 17.5451L4.94169 15.0718C5.26836 14.5235 5.56002 13.4968 5.56002 12.8551V10.4051C5.56002 5.63347 9.43336 1.76013 14.205 1.76013C18.9767 1.76013 22.85 5.63347 22.85 10.4051V12.8551C22.85 13.4851 23.1417 14.5235 23.4684 15.0718L24.95 17.5451C25.4984 18.4551 25.5917 19.5401 25.23 20.5318C24.8684 21.5235 24.075 22.2818 23.0717 22.6201C20.2134 23.5885 17.215 24.0551 14.205 24.0551ZM14.205 3.5218C10.4017 3.5218 7.31002 6.61347 7.31002 10.4168V12.8668C7.31002 13.8118 6.93669 15.1768 6.44669 15.9818L4.96502 18.4668C4.66169 18.9685 4.59169 19.5051 4.76669 19.9718C4.94169 20.4385 5.33836 20.7885 5.89836 20.9751C11.265 22.7601 17.1684 22.7601 22.535 20.9751C23.0367 20.8118 23.4217 20.4385 23.5967 19.9485C23.7834 19.4585 23.725 18.9218 23.4567 18.4668L21.975 15.9935C21.485 15.1885 21.1117 13.8235 21.1117 12.8785V10.4285C21.1 6.61347 18.0084 3.5218 14.205 3.5218Z" fill="#252525"/>
<path d="M14.1819 27.0301C12.9335 27.0301 11.7085 26.5167 10.8219 25.6301C9.93521 24.7434 9.42188 23.5184 9.42188 22.2701H11.1719C11.1719 23.0634 11.4985 23.8334 12.0585 24.3934C12.6185 24.9534 13.3885 25.2801 14.1819 25.2801C15.8385 25.2801 17.1919 23.9267 17.1919 22.2701H18.9419C18.9419 24.8951 16.8069 27.0301 14.1819 27.0301Z" fill="#252525"/>
</svg>
