<svg width="20" height="20" viewBox="0 0 20 20" fill="none" xmlns="http://www.w3.org/2000/svg">
<path d="M4.16675 4.15809C4.16675 3.34879 4.16675 2.94414 4.33549 2.72108C4.48249 2.52675 4.70718 2.4065 4.95041 2.39198C5.22961 2.37531 5.5663 2.59977 6.23968 3.04869L15.0026 8.89067C15.5591 9.2616 15.8373 9.44707 15.9342 9.68084C16.019 9.88522 16.019 10.1149 15.9342 10.3193C15.8373 10.5531 15.5591 10.7385 15.0026 11.1095L6.23968 16.9514C5.5663 17.4004 5.22961 17.6248 4.95041 17.6082C4.70718 17.5936 4.48249 17.4734 4.33549 17.2791C4.16675 17.056 4.16675 16.6513 4.16675 15.842V4.15809Z" stroke="#FE7D13" stroke-width="1.5" stroke-linecap="round" stroke-linejoin="round"/>
</svg>
