<svg width="30" height="30" viewBox="0 0 30 30" fill="none" xmlns="http://www.w3.org/2000/svg">
<path d="M17.373 2.25C19.276 2.25 20.8211 3.7984 20.8213 5.69824V24.3018C20.8211 26.2047 19.2729 27.75 17.373 27.75H5.69824C3.79534 27.7498 2.25014 26.2015 2.25 24.3018V5.69824C2.25016 3.79535 3.7985 2.25016 5.69824 2.25H17.373ZM5.69824 4.49512C5.03406 4.49528 4.49528 5.03406 4.49512 5.69824V24.3018C4.49526 24.966 5.03405 25.5047 5.69824 25.5049H17.3701C18.0345 25.5049 18.5741 24.9661 18.5742 24.3018V24.0518H18.5771V5.69824C18.577 5.03396 18.0374 4.49512 17.373 4.49512H5.69824ZM24.543 6.3252V23.6748H22.2979V6.3252H24.543ZM27.7471 8.83301V21.1641H25.502V8.83301H27.7471ZM10.123 13.4668C10.123 12.7391 10.9478 12.312 11.54 12.7412L11.6426 12.8164V12.8184L13.6562 14.2773V14.2783C14.1475 14.6352 14.1476 15.3678 13.6562 15.7246L11.54 17.2588H11.5391C10.9513 17.6833 10.123 17.2629 10.123 16.5332V13.4668Z" fill="#EBA91D" stroke="#EBA91D" stroke-width="0.5"/>
</svg>
