<svg width="14" height="15" viewBox="0 0 14 15" fill="none" xmlns="http://www.w3.org/2000/svg">
<path fill-rule="evenodd" clip-rule="evenodd" d="M5.13957 1.87707C4.23084 1.87707 3.35932 2.27244 2.71675 2.97621C2.07418 3.67998 1.71319 4.63449 1.71319 5.62977C1.71319 6.62505 2.07418 7.57957 2.71675 8.28333C3.35932 8.9871 4.23084 9.38247 5.13957 9.38247C6.0483 9.38247 6.91982 8.9871 7.56239 8.28333C8.20496 7.57957 8.56595 6.62505 8.56595 5.62977C8.56595 4.63449 8.20496 3.67998 7.56239 2.97621C6.91982 2.27244 6.0483 1.87707 5.13957 1.87707ZM9.71906e-08 5.62977C-0.000103125 4.74386 0.190714 3.87042 0.556934 3.08051C0.923153 2.29059 1.45443 1.6065 2.10756 1.08387C2.76069 0.561235 3.51723 0.214822 4.31565 0.0728018C5.11407 -0.0692184 5.93182 -0.00283563 6.7024 0.266551C7.47297 0.535938 8.17462 1.00072 8.75026 1.6231C9.32591 2.24548 9.7593 3.00788 10.0152 3.8483C10.2711 4.68872 10.3422 5.58342 10.2229 6.45964C10.1035 7.33586 9.79704 8.16885 9.32832 8.89087L13.4545 13.4101C13.6106 13.587 13.6969 13.824 13.695 14.07C13.693 14.316 13.6029 14.5513 13.4441 14.7252C13.2853 14.8992 13.0704 14.9978 12.8458 15C12.6212 15.0021 12.4049 14.9075 12.2433 14.7366L8.11795 10.2184C7.34904 10.8172 6.44446 11.1727 5.50335 11.2458C4.56223 11.3189 3.62089 11.1069 2.78248 10.633C1.94407 10.1591 1.24094 9.4416 0.75014 8.55909C0.259343 7.67657 -0.000183355 6.66311 9.71906e-08 5.62977Z" fill="#252525"/>
</svg>
