<svg width="24" height="24" viewBox="0 0 24 24" fill="none" xmlns="http://www.w3.org/2000/svg">
<path d="M19.77 2.67994C21.0715 2.60099 22 2.81811 22 2.81811V13.7224V16.7399C22 17.6999 21.22 18.5999 20.26 18.7199L19.93 18.7599C17.75 19.0499 14.39 20.1599 12.47 21.2199C12.21 21.3699 11.78 21.3699 11.51 21.2199L11.47 21.1999C9.55 20.1499 6.2 19.0499 4.03 18.7599L3.74 18.7199C2.78 18.5999 2 17.6999 2 16.7399V4.65994C2 3.46994 2.97 2.56994 4.16 2.66994C6.26 2.83994 9.44 3.89994 11.22 5.00994L11.47 5.15994C11.76 5.33994 12.24 5.33994 12.53 5.15994L12.7 5.04994C14.48 3.92994 18.4685 2.7589 19.77 2.67994Z" fill="white" stroke="white" stroke-width="1.5" stroke-linecap="round" stroke-linejoin="round"/>
<path d="M12 5.48999V20.49" stroke="#EBA91D" stroke-width="1.5" stroke-linecap="round" stroke-linejoin="round"/>
<path d="M7.75 8.48999H5.5" stroke="#EBA91D" stroke-width="1.5" stroke-linecap="round" stroke-linejoin="round"/>
<path d="M8.5 11.49H5.5" stroke="#EBA91D" stroke-width="1.5" stroke-linecap="round" stroke-linejoin="round"/>
</svg>
