<svg width="25" height="24" viewBox="0 0 25 24" fill="none" xmlns="http://www.w3.org/2000/svg">
<path d="M2.5 10.99V5.71002C2.5 4.38002 3.27 4.06002 4.21 5.00002L6.8 7.59002C7.19 7.98002 7.83 7.98002 8.21 7.59002L11.79 4.00002C12.18 3.61002 12.82 3.61002 13.2 4.00002L16.79 7.59002C17.18 7.98002 17.82 7.98002 18.2 7.59002L20.79 5.00002C21.73 4.06002 22.5 4.38002 22.5 5.71002V15.3C22.5 18.3 20.5 20.3 17.5 20.3H7.5C4.74 20.3 2.5 18.06 2.5 15.3" fill="white"/>
<path d="M2.5 10.99V5.71002C2.5 4.38002 3.27 4.06002 4.21 5.00002L6.8 7.59002C7.19 7.98002 7.83 7.98002 8.21 7.59002L11.79 4.00002C12.18 3.61002 12.82 3.61002 13.2 4.00002L16.79 7.59002C17.18 7.98002 17.82 7.98002 18.2 7.59002L20.79 5.00002C21.73 4.06002 22.5 4.38002 22.5 5.71002V15.3C22.5 18.3 20.5 20.3 17.5 20.3H7.5C4.74 20.3 2.5 18.06 2.5 15.3" stroke="white" stroke-width="1.5" stroke-linecap="round" stroke-linejoin="round"/>
</svg>
